<svg width="25" height="25" viewBox="0 0 25 25" fill="none" xmlns="http://www.w3.org/2000/svg">
<path d="M12.4998 19.7112C13.4384 20.5512 14.6779 21.0621 16.0367 21.0621C18.9667 21.0621 21.3419 18.6868 21.3419 15.7568C21.3419 13.3102 19.6859 11.2505 17.4336 10.6374M7.56608 10.6373C5.31378 11.2505 3.65771 13.3102 3.65771 15.7568C3.65771 18.6868 6.03296 21.062 8.96299 21.062C11.893 21.062 14.2682 18.6868 14.2682 15.7568C14.2682 15.0667 14.1365 14.4073 13.8967 13.8025M17.8051 8.68307C17.8051 11.6131 15.4298 13.9884 12.4998 13.9884C9.5698 13.9884 7.19456 11.6131 7.19456 8.68307C7.19456 5.75305 9.5698 3.37781 12.4998 3.37781C15.4298 3.37781 17.8051 5.75305 17.8051 8.68307Z" stroke="black" stroke-width="1.76842" stroke-linecap="round" stroke-linejoin="round"/>
</svg>
