<svg width="25" height="25" viewBox="0 0 25 25" fill="none" xmlns="http://www.w3.org/2000/svg">
<path d="M14.0295 8.58184C13.4571 8.98993 12.7566 9.22998 12 9.22998C10.067 9.22998 8.5 7.66298 8.5 5.72998C8.5 3.79698 10.067 2.22998 12 2.22998C13.253 2.22998 14.3522 2.8884 14.9705 3.87812M6.5 20.3172H9.11029C9.45063 20.3172 9.78888 20.3577 10.1188 20.4386L12.8769 21.1089C13.4753 21.2547 14.0988 21.2688 14.7035 21.1514L17.753 20.5581C18.5585 20.4012 19.2996 20.0154 19.8803 19.4505L22.0379 17.3517C22.654 16.7534 22.654 15.7824 22.0379 15.1831C21.4832 14.6434 20.6047 14.5827 19.9771 15.0403L17.4626 16.8749C17.1025 17.1381 16.6643 17.2798 16.2137 17.2798H13.7855H15.3311C16.2022 17.2798 16.9079 16.5933 16.9079 15.7459V15.4391C16.9079 14.7355 16.4156 14.122 15.7141 13.9519L13.3286 13.3717C12.9404 13.2776 12.5428 13.23 12.1431 13.23C11.1783 13.23 9.43189 14.0288 9.43189 14.0288L6.5 15.2549M20.5 6.72998C20.5 8.66298 18.933 10.23 17 10.23C15.067 10.23 13.5 8.66298 13.5 6.72998C13.5 4.79698 15.067 3.22998 17 3.22998C18.933 3.22998 20.5 4.79698 20.5 6.72998ZM2.5 14.83V20.63C2.5 21.1901 2.5 21.4701 2.60899 21.684C2.70487 21.8722 2.85785 22.0251 3.04601 22.121C3.25992 22.23 3.53995 22.23 4.1 22.23H4.9C5.46005 22.23 5.74008 22.23 5.95399 22.121C6.14215 22.0251 6.29513 21.8722 6.39101 21.684C6.5 21.4701 6.5 21.1901 6.5 20.63V14.83C6.5 14.2699 6.5 13.9899 6.39101 13.776C6.29513 13.5878 6.14215 13.4349 5.95399 13.339C5.74008 13.23 5.46005 13.23 4.9 13.23H4.1C3.53995 13.23 3.25992 13.23 3.04601 13.339C2.85785 13.4349 2.70487 13.5878 2.60899 13.776C2.5 13.9899 2.5 14.2699 2.5 14.83Z" stroke="black" stroke-width="2" stroke-linecap="round" stroke-linejoin="round"/>
</svg>
