<svg width="25" height="25" viewBox="0 0 25 25" fill="none" xmlns="http://www.w3.org/2000/svg">
<path d="M23.2939 6.09997C23.274 5.89831 23.2032 5.705 23.0882 5.53816C22.9731 5.37131 22.8177 5.23637 22.6363 5.14597L13.0363 0.345976C12.8696 0.262551 12.6858 0.219116 12.4993 0.219116C12.3129 0.219116 12.129 0.262551 11.9623 0.345976L2.36233 5.14597C2.18147 5.23688 2.02647 5.37198 1.91172 5.53876C1.79697 5.70552 1.7262 5.89856 1.70593 6.09997C1.69273 6.22837 0.552732 19.0204 12.0127 24.1168C12.1659 24.1859 12.3319 24.2217 12.4999 24.2217C12.6679 24.2217 12.834 24.1859 12.9871 24.1168C24.4471 19.0204 23.3071 6.22957 23.2939 6.09997ZM12.4999 21.6964C4.37713 17.77 3.99313 9.39037 4.05913 6.98197L12.4999 2.76157L20.9347 6.97957C20.9791 9.36637 20.5411 17.8012 12.4999 21.6964Z" fill="black"/>
<path d="M11.3 12.9232L8.54836 10.1716L6.85156 11.8684L11.3 16.3168L18.1484 9.46841L16.4516 7.77161L11.3 12.9232Z" fill="black"/>
</svg>
